<?xml version="1.0" encoding="UTF-8" standalone="no"?>
<!-- Created with Inkscape (http://www.inkscape.org/) -->

<svg
   width="134.59982"
   height="29.120001"
   viewBox="0 0 134.59982 29.120001"
   version="1.1"
   id="svg5"
   xmlns="http://www.w3.org/2000/svg"
   xmlns:svg="http://www.w3.org/2000/svg">
  <defs
     id="defs2" />
  <g
     id="layer1"
     transform="translate(-22.700091,-75.44)">
    <g
       aria-label="MASON"
       id="text2894"
       style="font-size:40px;line-height:1.25;fill:#362416">
      <path
         d="m 22.700091,104.32 v -5.4 q 0,-0.68 0,-0.84 0,-0.2 0,-0.28 0,-0.08 0,-0.32 v -0.04 q 0,-0.28 0,-0.32 0,-0.08 0,-0.28 0,-0.24 0,-0.88 v -2.04 q 0,-0.68 0,-0.84 0,-0.2 0,-0.28 0,-0.08 0,-0.32 v -0.04 q 0,-0.28 0,-0.32 0,-0.08 0,-0.28 0,-0.24 0,-0.88 v -4 q 1.52,0 2.08,-0.6 0.6,-0.64 0.6,-1.84 v -2.84 q 0,-1.2 -0.6,-1.92 -0.56,-0.76 -2.08,-0.76 v -3.32 h 9.12 l 5.08,5.28 5.08,-5.28 h 9.12 V 79 q -1.48,0 -2.08,0.76 -0.6,0.72 -0.6,1.92 v 2.84 q 0,1.2 0.6,1.84 0.6,0.6 2.08,0.6 v 17.36 h -13 v -5.4 q 0,-0.68 0,-0.84 0,-0.2 0,-0.28 0,-0.08 0,-0.32 v -0.04 q 0,-0.28 0,-0.32 0,-0.08 0,-0.28 0,-0.24 0,-0.88 v -2.04 q 0,-0.68 0,-0.84 0,-0.2 0,-0.28 0,-0.08 0,-0.32 v -0.04 q 0,-0.28 0,-0.32 0,-0.08 0,-0.28 0,-0.24 0,-0.88 v -4.2 h 1.32 q 1.52,0 2.08,-0.64 0.6,-0.64 0.6,-1.84 V 80.2 l -5.2,5.24 -5.2,-5.24 v 4.08 q 0,1.2 0.6,1.84 0.6,0.64 2.08,0.64 h 1.32 v 17.56 z"
         style="font-family:Danfo;-inkscape-font-specification:Danfo"
         id="path14338" />
      <path
         d="m 53.420077,104.32 v -5.4 q 0,-0.68 0,-0.84 0,-0.2 0,-0.28 0,-0.08 0,-0.32 v -0.04 q 0,-0.28 0,-0.32 0,-0.08 0,-0.28 0,-0.24 0,-0.88 v -2.04 q 0,-0.68 0,-0.84 0,-0.2 0,-0.28 0,-0.08 0,-0.32 v -0.04 q 0,-0.28 0,-0.32 0,-0.08 0,-0.28 0,-0.24 0,-0.88 v -4 q 0.96,0 1.6,-0.2 0.68,-0.24 1.28,-0.92 0.6,-0.72 1.44,-2.08 l 4.84,-8.08 h 7.76 l 4.48,7.96 q 0.76,1.32 1.24,2.04 0.52,0.72 1.16,1 0.68,0.28 1.88,0.28 v 17.36 h -13.08 v -5.4 q 0,-0.68 0,-0.84 0,-0.2 0,-0.28 0,-0.08 0,-0.32 v -0.04 q 0,-0.28 0,-0.32 0,-0.08 0,-0.28 0,-0.24 0,-0.88 v -2.04 q 0,-0.68 0,-0.84 0,-0.2 0,-0.28 0,-0.08 0,-0.32 v -0.04 q 0,-0.28 0,-0.32 0,-0.08 0,-0.28 0,-0.24 0,-0.88 v -4.2 h 0.64 q 0.64,0 1,-0.36 0.36,-0.4 0.36,-1 0,-0.56 -0.36,-0.92 -0.36,-0.36 -1,-0.36 h -4 q -0.72,0 -1.04,0.44 -0.32,0.4 -0.32,0.88 0,0.64 0.4,1 0.44,0.32 0.96,0.32 h 1.04 v 17.56 z m 9.24,-22.56 h 3.88 l -1.92,-3.32 z"
         style="font-family:Danfo;-inkscape-font-specification:Danfo"
         id="path14340" />
      <path
         d="m 89.020031,104.56 q -2.8,0 -4.8,-1.56 -2,-1.56 -2.56,-4.08 -0.04,-0.28 -0.12,-0.56 -0.04,-0.32 -0.08,-0.64 0,-0.32 0,-0.52 v -0.08 q 0,-0.12 0,-0.24 0,-0.12 0,-0.32 0,-0.24 0,-0.6 v -2.04 q 0,-0.68 0,-0.84 0,-0.2 0,-0.28 0,-0.08 0,-0.32 v -0.04 q 0,-0.28 0,-0.32 0,-0.08 0,-0.28 0,-0.24 0,-0.88 v -5.2 h 7.8 q 0,0.88 0.36,1.24 0.36,0.32 1.24,0.32 h 3.48 q 1.04,0 1.48,-0.24 0.44,-0.28 0.44,-0.92 0,-0.44 -0.4,-0.72 -0.4,-0.32 -1.6,-0.56 -1.16,-0.24 -3.52,-0.48 -3.44,-0.36 -5.4,-0.92 -1.92,-0.56 -2.72,-1.48 -0.8,-0.92 -0.8,-2.32 0,-4.24 6.6,-4.24 h 8.44 q 2.8,0 4.399999,1.36 1.64,1.32 1.64,3.64 h -6.959999 q 0,-0.88 -0.72,-1.4 -0.68,-0.56 -1.96,-0.56 h -1.84 q -1.12,0 -1.68,0.36 -0.56,0.36 -0.56,0.84 0,0.52 0.44,0.88 0.44,0.36 1.68,0.6 1.24,0.24 3.6,0.48 3.32,0.28 5.319999,1.12 2,0.84 2.92,2.44 0.92,1.6 0.92,4.2 v 1.56 q 0,0.64 0,0.88 0,0.2 0,0.28 0,0.04 0,0.32 v 0.04 q 0,0.24 0,0.32 0,0.08 0,0.28 0,0.16 0,0.84 v 2.04 q 0,0.36 0,0.6 0,0.2 0,0.32 0,0.12 0,0.24 v 0.08 q 0,0.2 -0.04,0.52 0,0.32 -0.04,0.64 -0.04,0.28 -0.08,0.56 -0.28,1.6 -1.36,2.88 -1.04,1.28 -2.639999,2.04 -1.56,0.72 -3.4,0.72 z"
         style="font-family:Danfo;-inkscape-font-specification:Danfo"
         id="path14342" />
      <path
         d="m 113.97995,104.56 q -2.8,0 -4.84,-1.56 -2,-1.6 -2.56,-4.08 -0.04,-0.2 -0.08,-0.44 -0.04,-0.28 -0.08,-0.52 0,-0.28 0,-0.44 v -0.04 q 0,-0.28 0,-0.32 0,-0.08 0,-0.28 0,-0.24 0,-0.92 v -2.04 q 0,-0.68 0,-0.84 0,-0.2 0,-0.28 0,-0.08 0,-0.32 v -0.04 q 0,-0.28 0,-0.32 0,-0.08 0,-0.28 0,-0.24 0,-0.88 v -8.08 q 0,-2.12 0.96,-3.8 1,-1.68 2.72,-2.64 1.72,-1 3.88,-1 h 7.92 q 2.2,0 3.88,0.96 1.72,0.96 2.68,2.64 1,1.68 1,3.84 v 8.08 q 0,0.64 0,0.88 0,0.2 0,0.28 0,0.04 0,0.32 v 0.04 q 0,0.24 0,0.32 0,0.08 0,0.28 0,0.16 0,0.84 v 2.04 q 0,0.64 0,0.88 0,0.2 0,0.28 0,0.04 0,0.32 v 0.04 q 0,0.24 -0.04,0.52 0,0.28 -0.04,0.52 -0.04,0.2 -0.08,0.4 -0.56,2.48 -2.6,4.08 -2,1.56 -4.8,1.56 z m 2.08,-17.8 q 0.52,0 1.04,-0.44 0.56,-0.48 0.68,-2.04 h 0.32 q 0.12,1.56 0.64,2.04 0.56,0.44 1.08,0.44 0.8,0 1.16,-0.56 0.4,-0.56 0.4,-1.56 v -3.08 q 0,-1.2 -0.56,-1.92 -0.56,-0.76 -2.08,-0.76 h -1.6 q -1.48,0 -2.08,0.76 -0.56,0.72 -0.56,1.92 v 3.08 q 0,1 0.36,1.56 0.4,0.56 1.2,0.56 z"
         style="font-family:Danfo;-inkscape-font-specification:Danfo"
         id="path14344" />
      <path
         d="m 131.77991,104.32 v -5.4 q 0,-0.68 0,-0.84 0,-0.2 0,-0.28 0,-0.08 0,-0.32 v -0.04 q 0,-0.28 0,-0.32 0,-0.08 0,-0.28 0,-0.24 0,-0.88 v -2.04 q 0,-0.68 0,-0.84 0,-0.2 0,-0.28 0,-0.08 0,-0.32 v -0.04 q 0,-0.28 0,-0.32 0,-0.08 0,-0.28 0,-0.24 0,-0.88 v -4 q 1.84,0 2.32,-0.68 0.48,-0.68 0.48,-1.96 v -2.68 q 0,-1.2 -0.6,-1.96 -0.6,-0.8 -2.2,-0.8 v -3.2 h 9.28 l 7.24,9.44 v -3.56 q 0,-1.2 -0.6,-1.92 -0.56,-0.76 -2.08,-0.76 v -3.2 h 11.68 v 3.2 q -1.48,0 -2.08,0.84 -0.6,0.84 -0.6,2.04 v 2.56 q 0,1.2 0.6,1.92 0.6,0.72 2.08,0.72 v 17.36 h -11.6 v -5.4 q 0,-0.68 0,-0.84 0,-0.2 0,-0.28 0,-0.08 0,-0.32 v -0.04 q 0,-0.28 0,-0.32 0,-0.08 0,-0.28 0,-0.24 0,-0.88 v -2.04 q 0,-0.68 0,-0.84 0,-0.2 0,-0.28 0,-0.08 0,-0.32 v -0.04 q 0,-0.28 0,-0.32 0,-0.08 0,-0.28 0,-0.24 0,-0.88 v -4.2 l -5,-6.48 v 4 q 0,2.48 2.8,2.48 v 17.56 z"
         style="font-family:Danfo;-inkscape-font-specification:Danfo"
         id="path14346" />
    </g>
  </g>
</svg>
